# xmcd CD database file
#
# Track frame offsets:
#	150
#	17007
#	37243
#	57147
#	74668
#	93908
#	110992
#	124694
#	144648
#	160830
#	181610
#
# Disc length: 2694 seconds
#
# Revision: 0
# Processed by: cddbd v1.5.2PL0 Copyright (c) Steve Scherf et al.
# Submitted via: CDex 1.86
#
DISCID=9a0a840b
DTITLE=Bobby Rush - Show You A Good Time
DYEAR=2011
DGENRE=Blues
TTITLE0=Bobby Rush - Show You A Good Time
TTITLE1=Bobby Rush - Sniffer
TTITLE2=Bobby Rush - My Friend
TTITLE3=Bobby Rush - In My Dippins
TTITLE4=Bobby Rush - I Am Good As Gone
TTITLE5=Bobby Rush - I Gotcha
TTITLE6=Bobby Rush - Broken Hearted Man
TTITLE7=Bobby Rush - Let Me In Your House
TTITLE8=Bobby Rush - Playin' Me Crazy
TTITLE9=Bobby Rush - I Got A Story To Tell
TTITLE10=Bobby Rush - Jody Didn't Take Your Woman (Bonus Track)
EXTD=YEAR: 2011
EXTT0=
EXTT1=
EXTT2=
EXTT3=
EXTT4=
EXTT5=
EXTT6=
EXTT7=
EXTT8=
EXTT9=
EXTT10=
PLAYORDER=
